<?xml version="1.0" encoding="utf-8"?>
<!-- Generator: Adobe Illustrator 15.0.0, SVG Export Plug-In . SVG Version: 6.00 Build 0)  -->
<!DOCTYPE svg PUBLIC "-//W3C//DTD SVG 1.1//EN" "http://www.w3.org/Graphics/SVG/1.1/DTD/svg11.dtd" [
	<!ENTITY st0 "fill:url(#SVGID_1_);">
	<!ENTITY st1 "fill:url(#SVGID_2_);">
]>
<svg version="1.1" id="Layer_1" xmlns="http://www.w3.org/2000/svg" xmlns:xlink="http://www.w3.org/1999/xlink" x="0px" y="0px"
	 width="55px" height="24px" viewBox="0 0 55 24" style="enable-background:new 0 0 55 24;" xml:space="preserve">
<linearGradient id="SVGID_1_" gradientUnits="userSpaceOnUse" x1="44.2197" y1="769.3906" x2="44.2197" y2="792.3906" gradientTransform="matrix(1 0 0 1 -16.7197 -768.8906)">
	<stop  offset="0" style="stop-color:#A2AAB9"/>
	<stop  offset="1" style="stop-color:#7988A4"/>
</linearGradient>
<path style="&st0;" d="M51,23.5H4c-1.929,0-3.5-1.57-3.5-3.5V4c0-1.93,1.57-3.5,3.5-3.5h47c1.93,0,3.5,1.57,3.5,3.5v16
	C54.5,21.93,52.93,23.5,51,23.5L51,23.5z"/>
<linearGradient id="SVGID_2_" gradientUnits="userSpaceOnUse" x1="44.2197" y1="792.8906" x2="44.2197" y2="768.8906" gradientTransform="matrix(1 0 0 1 -16.7197 -768.8906)">
	<stop  offset="0" style="stop-color:#67768D"/>
	<stop  offset="1" style="stop-color:#474849"/>
</linearGradient>
<path style="&st1;" d="M51,1c1.656,0,3,1.344,3,3v16c0,1.657-1.344,3-3,3H4c-1.656,0-3-1.343-3-3V4c0-1.656,1.344-3,3-3H51 M51,0H4
	C1.795,0,0,1.795,0,4v16c0,2.205,1.795,4,4,4h47c2.205,0,4-1.795,4-4V4C55,1.795,53.205,0,51,0L51,0z"/>
</svg>
