<?xml version="1.0" encoding="utf-8"?>
<!-- Generator: Adobe Illustrator 15.0.2, SVG Export Plug-In . SVG Version: 6.00 Build 0)  -->
<!DOCTYPE svg PUBLIC "-//W3C//DTD SVG 1.1//EN" "http://www.w3.org/Graphics/SVG/1.1/DTD/svg11.dtd">
<svg version="1.1" id="Layer_1" xmlns="http://www.w3.org/2000/svg" xmlns:xlink="http://www.w3.org/1999/xlink" x="0px" y="0px"
	 width="18.961px" height="27.098px" viewBox="0 0 18.961 27.098" enable-background="new 0 0 18.961 27.098" xml:space="preserve">
<g>
	<g>
		<path fill="#9CACBF" d="M15.359,1.847c1.492,0,2.697,1.209,2.697,2.7v18.904c0,1.49-1.205,2.698-2.697,2.698H3.6
			c-1.491,0-2.7-1.208-2.7-2.698V4.548c0-1.49,1.209-2.7,2.7-2.7 M15.363,0.948H3.6c-1.987,0-3.601,1.614-3.601,3.601v18.904
			c0,1.986,1.614,3.601,3.601,3.601h11.763c1.986,0,3.597-1.612,3.597-3.601V4.548C18.959,2.562,17.35,0.948,15.363,0.948
			L15.363,0.948z"/>
	</g>
	<g>
		
			<linearGradient id="SVGID_1_" gradientUnits="userSpaceOnUse" x1="42.9189" y1="1544.929" x2="42.9189" y2="1570.1321" gradientTransform="matrix(1 0 0 1 -33.4395 -1544.4297)">
			<stop  offset="0" style="stop-color:#636E9E"/>
			<stop  offset="0.0727" style="stop-color:#8DA3C0"/>
			<stop  offset="0.522" style="stop-color:#5A78A2"/>
			<stop  offset="0.522" style="stop-color:#486A9A"/>
			<stop  offset="1" style="stop-color:#4B6D9C"/>
		</linearGradient>
		<path fill="url(#SVGID_1_)" d="M3.6,25.702c-1.736,0-3.15-1.413-3.15-3.15V3.648c0-1.734,1.414-3.148,3.15-3.148h11.763
			c1.736,0,3.146,1.414,3.146,3.148v18.903c0,1.737-1.409,3.15-3.146,3.15L3.6,25.702L3.6,25.702z"/>
		<linearGradient id="SVGID_2_" gradientUnits="userSpaceOnUse" x1="9.4819" y1="26.1516" x2="9.4819" y2="0.0466">
			<stop  offset="0" style="stop-color:#385173"/>
			<stop  offset="0.2967" style="stop-color:#385173"/>
			<stop  offset="0.7363" style="stop-color:#576B85"/>
			<stop  offset="0.7913" style="stop-color:#53667E"/>
			<stop  offset="0.8719" style="stop-color:#48576A"/>
			<stop  offset="0.9676" style="stop-color:#373F4A"/>
			<stop  offset="1" style="stop-color:#30363E"/>
		</linearGradient>
		<path fill="url(#SVGID_2_)" d="M15.359,0.706c1.492,0,2.697,1.452,2.697,2.941v18.903c0,1.492-1.205,2.701-2.697,2.701H3.6
			c-1.491,0-2.7-1.209-2.7-2.701V3.648c0-1.489,1.276-2.969,2.768-2.969 M15.363,0.046H3.6c-1.987,0-3.601,1.614-3.601,3.602v18.903
			c0,1.986,1.614,3.601,3.601,3.601h11.763c1.986,0,3.601-1.612,3.601-3.601V3.647C18.963,1.661,17.35,0.046,15.363,0.046
			L15.363,0.046z"/>
	</g>
</g>
</svg>
